<svg width="127" height="30" viewBox="0 0 127 30" fill="none" xmlns="http://www.w3.org/2000/svg">
<path d="M17.4103 5.63507H20.3703L19.8022 8.83507H16.0503L17.4103 5.63507Z" fill="white"/>
<path d="M14.5024 9.4751H19.6885L19.1241 12.6751H13.1453L14.5024 9.4751Z" fill="white"/>
<path d="M11.618 13.3151H19.0103L18.4472 16.5151H10.2594L11.618 13.3151Z" fill="white"/>
<path d="M8.73155 17.1551H18.334L17.7693 20.3551H7.37231L8.73155 17.1551Z" fill="white"/>
<path d="M5.84547 21.1551H17.6286L17.0646 24.3551H4.48779L5.84547 21.1551Z" fill="white"/>
<path d="M2.93032 24.9951H16.9543L16.3874 28.1951H1.57532L2.93032 24.9951Z" fill="white"/>
<path d="M19.0103 28.1951H17.0604L21.0395 5.63507H21.6503L19.0103 28.1951Z" fill="white"/>
<path d="M31.3304 5.63507H28.3704L28.9385 8.83507H32.6904L31.3304 5.63507Z" fill="white"/>
<path d="M34.2383 9.4751H29.0522L29.6166 12.6751H35.5953L34.2383 9.4751Z" fill="white"/>
<path d="M37.1227 13.3151H29.7303L30.2935 16.5151H38.4813L37.1227 13.3151Z" fill="white"/>
<path d="M40.0091 17.1551H30.4066L30.9714 20.3551H41.3683L40.0091 17.1551Z" fill="white"/>
<path d="M42.8952 21.1551H31.1121L31.676 24.3551H44.2529L42.8952 21.1551Z" fill="white"/>
<path d="M45.8103 24.9951H31.7864L32.3533 28.1951H47.1653L45.8103 24.9951Z" fill="white"/>
<path d="M29.7304 28.1951H31.6802L27.7011 5.63507H27.0904L29.7304 28.1951Z" fill="white"/>
<path d="M22.2903 5.63507H26.4503L26.5762 6.75507H22.1624L22.2903 5.63507Z" fill="white"/>
<path d="M22.0723 7.55505H26.6679L26.8116 8.83505H21.9269L22.0723 7.55505Z" fill="white"/>
<path d="M21.8541 9.4751H26.8854L27.0286 10.7551H21.7108L21.8541 9.4751Z" fill="white"/>
<path d="M21.6357 11.3951H27.1014L27.2504 12.6751H21.4904L21.6357 11.3951Z" fill="white"/>
<path d="M21.418 13.3151H27.3207L27.4656 14.5951H21.2748L21.418 13.3151Z" fill="white"/>
<path d="M21.2014 15.235H27.5372L27.6803 16.515H21.0542L21.2014 15.235Z" fill="white"/>
<path d="M20.9835 17.1551H27.754L27.8978 18.4351H20.8397L20.9835 17.1551Z" fill="white"/>
<path d="M20.7591 19.0751H27.9703L28.1157 20.3551H20.6219L20.7591 19.0751Z" fill="white"/>
<path d="M20.5456 20.9951H28.1919L28.3357 22.2751H20.4041L20.5456 20.9951Z" fill="white"/>
<path d="M20.313 23.0751H28.4265L28.5728 24.3551H20.1656L20.313 23.0751Z" fill="white"/>
<path d="M20.0913 24.9951H28.6426L28.7902 26.2751H19.949L20.0913 24.9951Z" fill="white"/>
<path d="M19.8719 26.915H28.8635L29.0057 28.195H19.7303L19.8719 26.915Z" fill="white"/>
<rect x="20.2103" y="2.27509" width="3.04" height="2.56" fill="white"/>
<rect x="25.4903" y="2.27509" width="3.04" height="2.56" fill="white"/>
<rect x="23.7303" y="2.9151" width="1.28" height="1.92" fill="white"/>
<rect x="19.0903" y="1.15509" width="10.56" height="0.48" fill="white"/>
<path d="M56.5645 5.46875H58.0527L60.2441 11.7324L62.4355 5.46875H63.9238L60.8418 14H59.6465L56.5645 5.46875ZM55.7617 5.46875H57.2441L57.5137 11.5742V14H55.7617V5.46875ZM63.2441 5.46875H64.7324V14H62.9746V11.5742L63.2441 5.46875ZM69.5898 12.5703V9.74609C69.5898 9.54297 69.5566 9.36914 69.4902 9.22461C69.4238 9.07617 69.3203 8.96094 69.1797 8.87891C69.043 8.79688 68.8652 8.75586 68.6465 8.75586C68.459 8.75586 68.2969 8.78906 68.1602 8.85547C68.0234 8.91797 67.918 9.00977 67.8438 9.13086C67.7695 9.24805 67.7324 9.38672 67.7324 9.54688H66.0449C66.0449 9.27734 66.1074 9.02148 66.2324 8.7793C66.3574 8.53711 66.5391 8.32422 66.7773 8.14062C67.0156 7.95312 67.2988 7.80664 67.627 7.70117C67.959 7.5957 68.3301 7.54297 68.7402 7.54297C69.2324 7.54297 69.6699 7.625 70.0527 7.78906C70.4355 7.95312 70.7363 8.19922 70.9551 8.52734C71.1777 8.85547 71.2891 9.26562 71.2891 9.75781V12.4707C71.2891 12.8184 71.3105 13.1035 71.3535 13.3262C71.3965 13.5449 71.459 13.7363 71.541 13.9004V14H69.8359C69.7539 13.8281 69.6914 13.6133 69.6484 13.3555C69.6094 13.0938 69.5898 12.832 69.5898 12.5703ZM69.8125 10.1387L69.8242 11.0938H68.8809C68.6582 11.0938 68.4648 11.1191 68.3008 11.1699C68.1367 11.2207 68.002 11.293 67.8965 11.3867C67.791 11.4766 67.7129 11.582 67.6621 11.7031C67.6152 11.8242 67.5918 11.957 67.5918 12.1016C67.5918 12.2461 67.625 12.377 67.6914 12.4941C67.7578 12.6074 67.8535 12.6973 67.9785 12.7637C68.1035 12.8262 68.25 12.8574 68.418 12.8574C68.6719 12.8574 68.8926 12.8066 69.0801 12.7051C69.2676 12.6035 69.4121 12.4785 69.5137 12.3301C69.6191 12.1816 69.6738 12.041 69.6777 11.9082L70.123 12.623C70.0605 12.7832 69.9746 12.9492 69.8652 13.1211C69.7598 13.293 69.625 13.4551 69.4609 13.6074C69.2969 13.7559 69.0996 13.8789 68.8691 13.9766C68.6387 14.0703 68.3652 14.1172 68.0488 14.1172C67.6465 14.1172 67.2812 14.0371 66.9531 13.877C66.6289 13.7129 66.3711 13.4883 66.1797 13.2031C65.9922 12.9141 65.8984 12.5859 65.8984 12.2188C65.8984 11.8867 65.9609 11.5918 66.0859 11.334C66.2109 11.0762 66.3945 10.8594 66.6367 10.6836C66.8828 10.5039 67.1895 10.3691 67.5566 10.2793C67.9238 10.1855 68.3496 10.1387 68.834 10.1387H69.8125ZM74.377 13.2852L76.0586 7.66016H77.8691L75.3203 14.9551C75.2656 15.1152 75.1914 15.2871 75.0977 15.4707C75.0078 15.6543 74.8848 15.8281 74.7285 15.9922C74.5762 16.1602 74.3828 16.2969 74.1484 16.4023C73.918 16.5078 73.6348 16.5605 73.2988 16.5605C73.1387 16.5605 73.0078 16.5508 72.9062 16.5312C72.8047 16.5117 72.6836 16.4844 72.543 16.4492V15.2129C72.5859 15.2129 72.6309 15.2129 72.6777 15.2129C72.7246 15.2168 72.7695 15.2188 72.8125 15.2188C73.0352 15.2188 73.2168 15.1934 73.3574 15.1426C73.498 15.0918 73.6113 15.0137 73.6973 14.9082C73.7832 14.8066 73.8516 14.6738 73.9023 14.5098L74.377 13.2852ZM73.6738 7.66016L75.0508 12.2539L75.291 14.041L74.1426 14.1641L71.8633 7.66016H73.6738ZM81.8711 12.5703V9.74609C81.8711 9.54297 81.8379 9.36914 81.7715 9.22461C81.7051 9.07617 81.6016 8.96094 81.4609 8.87891C81.3242 8.79688 81.1465 8.75586 80.9277 8.75586C80.7402 8.75586 80.5781 8.78906 80.4414 8.85547C80.3047 8.91797 80.1992 9.00977 80.125 9.13086C80.0508 9.24805 80.0137 9.38672 80.0137 9.54688H78.3262C78.3262 9.27734 78.3887 9.02148 78.5137 8.7793C78.6387 8.53711 78.8203 8.32422 79.0586 8.14062C79.2969 7.95312 79.5801 7.80664 79.9082 7.70117C80.2402 7.5957 80.6113 7.54297 81.0215 7.54297C81.5137 7.54297 81.9512 7.625 82.334 7.78906C82.7168 7.95312 83.0176 8.19922 83.2363 8.52734C83.459 8.85547 83.5703 9.26562 83.5703 9.75781V12.4707C83.5703 12.8184 83.5918 13.1035 83.6348 13.3262C83.6777 13.5449 83.7402 13.7363 83.8223 13.9004V14H82.1172C82.0352 13.8281 81.9727 13.6133 81.9297 13.3555C81.8906 13.0938 81.8711 12.832 81.8711 12.5703ZM82.0938 10.1387L82.1055 11.0938H81.1621C80.9395 11.0938 80.7461 11.1191 80.582 11.1699C80.418 11.2207 80.2832 11.293 80.1777 11.3867C80.0723 11.4766 79.9941 11.582 79.9434 11.7031C79.8965 11.8242 79.873 11.957 79.873 12.1016C79.873 12.2461 79.9062 12.377 79.9727 12.4941C80.0391 12.6074 80.1348 12.6973 80.2598 12.7637C80.3848 12.8262 80.5312 12.8574 80.6992 12.8574C80.9531 12.8574 81.1738 12.8066 81.3613 12.7051C81.5488 12.6035 81.6934 12.4785 81.7949 12.3301C81.9004 12.1816 81.9551 12.041 81.959 11.9082L82.4043 12.623C82.3418 12.7832 82.2559 12.9492 82.1465 13.1211C82.041 13.293 81.9062 13.4551 81.7422 13.6074C81.5781 13.7559 81.3809 13.8789 81.1504 13.9766C80.9199 14.0703 80.6465 14.1172 80.3301 14.1172C79.9277 14.1172 79.5625 14.0371 79.2344 13.877C78.9102 13.7129 78.6523 13.4883 78.4609 13.2031C78.2734 12.9141 78.1797 12.5859 78.1797 12.2188C78.1797 11.8867 78.2422 11.5918 78.3672 11.334C78.4922 11.0762 78.6758 10.8594 78.918 10.6836C79.1641 10.5039 79.4707 10.3691 79.8379 10.2793C80.2051 10.1855 80.6309 10.1387 81.1152 10.1387H82.0938ZM93.6895 12.6289V14H89.1484V12.6289H93.6895ZM89.7227 5.46875V14H87.9648V5.46875H89.7227ZM93.0977 8.94336V10.2793H89.1484V8.94336H93.0977ZM93.6836 5.46875V6.8457H89.1484V5.46875H93.6836ZM98.0371 12.248C98.0371 12.127 98.002 12.0176 97.9316 11.9199C97.8613 11.8223 97.7305 11.7324 97.5391 11.6504C97.3516 11.5645 97.0801 11.4863 96.7246 11.416C96.4043 11.3457 96.1055 11.2578 95.8281 11.1523C95.5547 11.043 95.3164 10.9121 95.1133 10.7598C94.9141 10.6074 94.7578 10.4277 94.6445 10.2207C94.5312 10.0098 94.4746 9.76953 94.4746 9.5C94.4746 9.23438 94.5312 8.98438 94.6445 8.75C94.7617 8.51562 94.9277 8.30859 95.1426 8.12891C95.3613 7.94531 95.627 7.80273 95.9395 7.70117C96.2559 7.5957 96.6113 7.54297 97.0059 7.54297C97.5566 7.54297 98.0293 7.63086 98.4238 7.80664C98.8223 7.98242 99.127 8.22461 99.3379 8.5332C99.5527 8.83789 99.6602 9.18555 99.6602 9.57617H97.9727C97.9727 9.41211 97.9375 9.26562 97.8672 9.13672C97.8008 9.00391 97.6953 8.90039 97.5508 8.82617C97.4102 8.74805 97.2266 8.70898 97 8.70898C96.8125 8.70898 96.6504 8.74219 96.5137 8.80859C96.377 8.87109 96.2715 8.95703 96.1973 9.06641C96.127 9.17188 96.0918 9.28906 96.0918 9.41797C96.0918 9.51562 96.1113 9.60352 96.1504 9.68164C96.1934 9.75586 96.2617 9.82422 96.3555 9.88672C96.4492 9.94922 96.5703 10.0078 96.7188 10.0625C96.8711 10.1133 97.0586 10.1602 97.2812 10.2031C97.7383 10.2969 98.1465 10.4199 98.5059 10.5723C98.8652 10.7207 99.1504 10.9238 99.3613 11.1816C99.5723 11.4355 99.6777 11.7695 99.6777 12.1836C99.6777 12.4648 99.6152 12.7227 99.4902 12.957C99.3652 13.1914 99.1855 13.3965 98.9512 13.5723C98.7168 13.7441 98.4355 13.8789 98.1074 13.9766C97.7832 14.0703 97.418 14.1172 97.0117 14.1172C96.4219 14.1172 95.9219 14.0117 95.5117 13.8008C95.1055 13.5898 94.7969 13.3223 94.5859 12.998C94.3789 12.6699 94.2754 12.334 94.2754 11.9902H95.875C95.8828 12.2207 95.9414 12.4062 96.0508 12.5469C96.1641 12.6875 96.3066 12.7891 96.4785 12.8516C96.6543 12.9141 96.8438 12.9453 97.0469 12.9453C97.2656 12.9453 97.4473 12.916 97.5918 12.8574C97.7363 12.7949 97.8457 12.7129 97.9199 12.6113C97.998 12.5059 98.0371 12.3848 98.0371 12.248ZM103.879 7.66016V8.85547H100.188V7.66016H103.879ZM101.102 6.0957H102.789V12.0898C102.789 12.2734 102.812 12.4141 102.859 12.5117C102.91 12.6094 102.984 12.6777 103.082 12.7168C103.18 12.752 103.303 12.7695 103.451 12.7695C103.557 12.7695 103.65 12.7656 103.732 12.7578C103.818 12.7461 103.891 12.7344 103.949 12.7227L103.955 13.9648C103.811 14.0117 103.654 14.0488 103.486 14.0762C103.318 14.1035 103.133 14.1172 102.93 14.1172C102.559 14.1172 102.234 14.0566 101.957 13.9355C101.684 13.8105 101.473 13.6113 101.324 13.3379C101.176 13.0645 101.102 12.7051 101.102 12.2598V6.0957ZM108.262 12.5703V9.74609C108.262 9.54297 108.229 9.36914 108.162 9.22461C108.096 9.07617 107.992 8.96094 107.852 8.87891C107.715 8.79688 107.537 8.75586 107.318 8.75586C107.131 8.75586 106.969 8.78906 106.832 8.85547C106.695 8.91797 106.59 9.00977 106.516 9.13086C106.441 9.24805 106.404 9.38672 106.404 9.54688H104.717C104.717 9.27734 104.779 9.02148 104.904 8.7793C105.029 8.53711 105.211 8.32422 105.449 8.14062C105.688 7.95312 105.971 7.80664 106.299 7.70117C106.631 7.5957 107.002 7.54297 107.412 7.54297C107.904 7.54297 108.342 7.625 108.725 7.78906C109.107 7.95312 109.408 8.19922 109.627 8.52734C109.85 8.85547 109.961 9.26562 109.961 9.75781V12.4707C109.961 12.8184 109.982 13.1035 110.025 13.3262C110.068 13.5449 110.131 13.7363 110.213 13.9004V14H108.508C108.426 13.8281 108.363 13.6133 108.32 13.3555C108.281 13.0938 108.262 12.832 108.262 12.5703ZM108.484 10.1387L108.496 11.0938H107.553C107.33 11.0938 107.137 11.1191 106.973 11.1699C106.809 11.2207 106.674 11.293 106.568 11.3867C106.463 11.4766 106.385 11.582 106.334 11.7031C106.287 11.8242 106.264 11.957 106.264 12.1016C106.264 12.2461 106.297 12.377 106.363 12.4941C106.43 12.6074 106.525 12.6973 106.65 12.7637C106.775 12.8262 106.922 12.8574 107.09 12.8574C107.344 12.8574 107.564 12.8066 107.752 12.7051C107.939 12.6035 108.084 12.4785 108.186 12.3301C108.291 12.1816 108.346 12.041 108.35 11.9082L108.795 12.623C108.732 12.7832 108.646 12.9492 108.537 13.1211C108.432 13.293 108.297 13.4551 108.133 13.6074C107.969 13.7559 107.771 13.8789 107.541 13.9766C107.311 14.0703 107.037 14.1172 106.721 14.1172C106.318 14.1172 105.953 14.0371 105.625 13.877C105.301 13.7129 105.043 13.4883 104.852 13.2031C104.664 12.9141 104.57 12.5859 104.57 12.2188C104.57 11.8867 104.633 11.5918 104.758 11.334C104.883 11.0762 105.066 10.8594 105.309 10.6836C105.555 10.5039 105.861 10.3691 106.229 10.2793C106.596 10.1855 107.021 10.1387 107.506 10.1387H108.484ZM114.367 7.66016V8.85547H110.676V7.66016H114.367ZM111.59 6.0957H113.277V12.0898C113.277 12.2734 113.301 12.4141 113.348 12.5117C113.398 12.6094 113.473 12.6777 113.57 12.7168C113.668 12.752 113.791 12.7695 113.939 12.7695C114.045 12.7695 114.139 12.7656 114.221 12.7578C114.307 12.7461 114.379 12.7344 114.438 12.7227L114.443 13.9648C114.299 14.0117 114.143 14.0488 113.975 14.0762C113.807 14.1035 113.621 14.1172 113.418 14.1172C113.047 14.1172 112.723 14.0566 112.445 13.9355C112.172 13.8105 111.961 13.6113 111.812 13.3379C111.664 13.0645 111.59 12.7051 111.59 12.2598V6.0957ZM118.246 14.1172C117.754 14.1172 117.312 14.0391 116.922 13.8828C116.531 13.7227 116.199 13.502 115.926 13.2207C115.656 12.9395 115.449 12.6133 115.305 12.2422C115.16 11.8672 115.088 11.4688 115.088 11.0469V10.8125C115.088 10.332 115.156 9.89258 115.293 9.49414C115.43 9.0957 115.625 8.75 115.879 8.45703C116.137 8.16406 116.449 7.93945 116.816 7.7832C117.184 7.62305 117.598 7.54297 118.059 7.54297C118.508 7.54297 118.906 7.61719 119.254 7.76562C119.602 7.91406 119.893 8.125 120.127 8.39844C120.365 8.67188 120.545 9 120.666 9.38281C120.787 9.76172 120.848 10.1836 120.848 10.6484V11.3516H115.809V10.2266H119.189V10.0977C119.189 9.86328 119.146 9.6543 119.061 9.4707C118.979 9.2832 118.854 9.13477 118.686 9.02539C118.518 8.91602 118.303 8.86133 118.041 8.86133C117.818 8.86133 117.627 8.91016 117.467 9.00781C117.307 9.10547 117.176 9.24219 117.074 9.41797C116.977 9.59375 116.902 9.80078 116.852 10.0391C116.805 10.2734 116.781 10.5312 116.781 10.8125V11.0469C116.781 11.3008 116.816 11.5352 116.887 11.75C116.961 11.9648 117.064 12.1504 117.197 12.3066C117.334 12.4629 117.498 12.584 117.689 12.6699C117.885 12.7559 118.105 12.7988 118.352 12.7988C118.656 12.7988 118.939 12.7402 119.201 12.623C119.467 12.502 119.695 12.3203 119.887 12.0781L120.707 12.9688C120.574 13.1602 120.393 13.3438 120.162 13.5195C119.936 13.6953 119.662 13.8398 119.342 13.9531C119.021 14.0625 118.656 14.1172 118.246 14.1172ZM57.6309 19.4688V28H55.8789V19.4688H57.6309ZM60.8242 23.0137V28H59.1367V21.6602H60.7188L60.8242 23.0137ZM60.5781 24.6074H60.1211C60.1211 24.1387 60.1816 23.7168 60.3027 23.3418C60.4238 22.9629 60.5938 22.6406 60.8125 22.375C61.0312 22.1055 61.291 21.9004 61.5918 21.7598C61.8965 21.6152 62.2363 21.543 62.6113 21.543C62.9082 21.543 63.1797 21.5859 63.4258 21.6719C63.6719 21.7578 63.8828 21.8945 64.0586 22.082C64.2383 22.2695 64.375 22.5176 64.4688 22.8262C64.5664 23.1348 64.6152 23.5117 64.6152 23.957V28H62.916V23.9512C62.916 23.6699 62.877 23.4512 62.7988 23.2949C62.7207 23.1387 62.6055 23.0293 62.4531 22.9668C62.3047 22.9004 62.1211 22.8672 61.9023 22.8672C61.6758 22.8672 61.4785 22.9121 61.3105 23.002C61.1465 23.0918 61.0098 23.2168 60.9004 23.377C60.7949 23.5332 60.7148 23.7168 60.6602 23.9277C60.6055 24.1387 60.5781 24.3652 60.5781 24.6074ZM68.0547 26.7695L69.4609 21.6602H71.2246L69.0859 28H68.0195L68.0547 26.7695ZM67.0879 21.6602L68.5 26.7754L68.5293 28H67.457L65.3184 21.6602H67.0879ZM74.8164 28.1172C74.3242 28.1172 73.8828 28.0391 73.4922 27.8828C73.1016 27.7227 72.7695 27.502 72.4961 27.2207C72.2266 26.9395 72.0195 26.6133 71.875 26.2422C71.7305 25.8672 71.6582 25.4688 71.6582 25.0469V24.8125C71.6582 24.332 71.7266 23.8926 71.8633 23.4941C72 23.0957 72.1953 22.75 72.4492 22.457C72.707 22.1641 73.0195 21.9395 73.3867 21.7832C73.7539 21.623 74.168 21.543 74.6289 21.543C75.0781 21.543 75.4766 21.6172 75.8242 21.7656C76.1719 21.9141 76.4629 22.125 76.6973 22.3984C76.9355 22.6719 77.1152 23 77.2363 23.3828C77.3574 23.7617 77.418 24.1836 77.418 24.6484V25.3516H72.3789V24.2266H75.7598V24.0977C75.7598 23.8633 75.7168 23.6543 75.6309 23.4707C75.5488 23.2832 75.4238 23.1348 75.2559 23.0254C75.0879 22.916 74.873 22.8613 74.6113 22.8613C74.3887 22.8613 74.1973 22.9102 74.0371 23.0078C73.877 23.1055 73.7461 23.2422 73.6445 23.418C73.5469 23.5938 73.4727 23.8008 73.4219 24.0391C73.375 24.2734 73.3516 24.5312 73.3516 24.8125V25.0469C73.3516 25.3008 73.3867 25.5352 73.457 25.75C73.5312 25.9648 73.6348 26.1504 73.7676 26.3066C73.9043 26.4629 74.0684 26.584 74.2598 26.6699C74.4551 26.7559 74.6758 26.7988 74.9219 26.7988C75.2266 26.7988 75.5098 26.7402 75.7715 26.623C76.0371 26.502 76.2656 26.3203 76.457 26.0781L77.2773 26.9688C77.1445 27.1602 76.9629 27.3438 76.7324 27.5195C76.5059 27.6953 76.2324 27.8398 75.9121 27.9531C75.5918 28.0625 75.2266 28.1172 74.8164 28.1172ZM81.8066 26.248C81.8066 26.127 81.7715 26.0176 81.7012 25.9199C81.6309 25.8223 81.5 25.7324 81.3086 25.6504C81.1211 25.5645 80.8496 25.4863 80.4941 25.416C80.1738 25.3457 79.875 25.2578 79.5977 25.1523C79.3242 25.043 79.0859 24.9121 78.8828 24.7598C78.6836 24.6074 78.5273 24.4277 78.4141 24.2207C78.3008 24.0098 78.2441 23.7695 78.2441 23.5C78.2441 23.2344 78.3008 22.9844 78.4141 22.75C78.5312 22.5156 78.6973 22.3086 78.9121 22.1289C79.1309 21.9453 79.3965 21.8027 79.709 21.7012C80.0254 21.5957 80.3809 21.543 80.7754 21.543C81.3262 21.543 81.7988 21.6309 82.1934 21.8066C82.5918 21.9824 82.8965 22.2246 83.1074 22.5332C83.3223 22.8379 83.4297 23.1855 83.4297 23.5762H81.7422C81.7422 23.4121 81.707 23.2656 81.6367 23.1367C81.5703 23.0039 81.4648 22.9004 81.3203 22.8262C81.1797 22.748 80.9961 22.709 80.7695 22.709C80.582 22.709 80.4199 22.7422 80.2832 22.8086C80.1465 22.8711 80.041 22.957 79.9668 23.0664C79.8965 23.1719 79.8613 23.2891 79.8613 23.418C79.8613 23.5156 79.8809 23.6035 79.9199 23.6816C79.9629 23.7559 80.0312 23.8242 80.125 23.8867C80.2188 23.9492 80.3398 24.0078 80.4883 24.0625C80.6406 24.1133 80.8281 24.1602 81.0508 24.2031C81.5078 24.2969 81.916 24.4199 82.2754 24.5723C82.6348 24.7207 82.9199 24.9238 83.1309 25.1816C83.3418 25.4355 83.4473 25.7695 83.4473 26.1836C83.4473 26.4648 83.3848 26.7227 83.2598 26.957C83.1348 27.1914 82.9551 27.3965 82.7207 27.5723C82.4863 27.7441 82.2051 27.8789 81.877 27.9766C81.5527 28.0703 81.1875 28.1172 80.7812 28.1172C80.1914 28.1172 79.6914 28.0117 79.2812 27.8008C78.875 27.5898 78.5664 27.3223 78.3555 26.998C78.1484 26.6699 78.0449 26.334 78.0449 25.9902H79.6445C79.6523 26.2207 79.7109 26.4062 79.8203 26.5469C79.9336 26.6875 80.0762 26.7891 80.248 26.8516C80.4238 26.9141 80.6133 26.9453 80.8164 26.9453C81.0352 26.9453 81.2168 26.916 81.3613 26.8574C81.5059 26.7949 81.6152 26.7129 81.6895 26.6113C81.7676 26.5059 81.8066 26.3848 81.8066 26.248ZM87.6484 21.6602V22.8555H83.957V21.6602H87.6484ZM84.8711 20.0957H86.5586V26.0898C86.5586 26.2734 86.582 26.4141 86.6289 26.5117C86.6797 26.6094 86.7539 26.6777 86.8516 26.7168C86.9492 26.752 87.0723 26.7695 87.2207 26.7695C87.3262 26.7695 87.4199 26.7656 87.502 26.7578C87.5879 26.7461 87.6602 26.7344 87.7188 26.7227L87.7246 27.9648C87.5801 28.0117 87.4238 28.0488 87.2559 28.0762C87.0879 28.1035 86.9023 28.1172 86.6992 28.1172C86.3281 28.1172 86.0039 28.0566 85.7266 27.9355C85.4531 27.8105 85.2422 27.6113 85.0938 27.3379C84.9453 27.0645 84.8711 26.7051 84.8711 26.2598V20.0957ZM90.2969 22.9727V28H88.6035V21.6602H90.1914L90.2969 22.9727ZM90.0625 24.6074H89.5938C89.5938 24.166 89.6465 23.7598 89.752 23.3887C89.8613 23.0137 90.0195 22.6895 90.2266 22.416C90.4375 22.1387 90.6973 21.9238 91.0059 21.7715C91.3145 21.6191 91.6719 21.543 92.0781 21.543C92.3594 21.543 92.6172 21.5859 92.8516 21.6719C93.0859 21.7539 93.2871 21.8848 93.4551 22.0645C93.627 22.2402 93.7598 22.4707 93.8535 22.7559C93.9473 23.0371 93.9941 23.375 93.9941 23.7695V28H92.3066V23.957C92.3066 23.668 92.2676 23.4453 92.1895 23.2891C92.1113 23.1328 92 23.0234 91.8555 22.9609C91.7148 22.8984 91.5449 22.8672 91.3457 22.8672C91.127 22.8672 90.9355 22.9121 90.7715 23.002C90.6113 23.0918 90.4785 23.2168 90.373 23.377C90.2676 23.5332 90.1895 23.7168 90.1387 23.9277C90.0879 24.1387 90.0625 24.3652 90.0625 24.6074ZM93.8359 24.4141L93.2324 24.4902C93.2324 24.0762 93.2832 23.6914 93.3848 23.3359C93.4902 22.9805 93.6445 22.668 93.8477 22.3984C94.0547 22.1289 94.3105 21.9199 94.6152 21.7715C94.9199 21.6191 95.2715 21.543 95.6699 21.543C95.9746 21.543 96.252 21.5879 96.502 21.6777C96.752 21.7637 96.9648 21.9023 97.1406 22.0938C97.3203 22.2812 97.457 22.5273 97.5508 22.832C97.6484 23.1367 97.6973 23.5098 97.6973 23.9512V28H96.0039V23.9512C96.0039 23.6582 95.9648 23.4355 95.8867 23.2832C95.8125 23.127 95.7031 23.0195 95.5586 22.9609C95.418 22.8984 95.25 22.8672 95.0547 22.8672C94.8516 22.8672 94.6738 22.9082 94.5215 22.9902C94.3691 23.0684 94.2422 23.1777 94.1406 23.3184C94.0391 23.459 93.9629 23.623 93.9121 23.8105C93.8613 23.9941 93.8359 24.1953 93.8359 24.4141ZM101.922 28.1172C101.43 28.1172 100.988 28.0391 100.598 27.8828C100.207 27.7227 99.875 27.502 99.6016 27.2207C99.332 26.9395 99.125 26.6133 98.9805 26.2422C98.8359 25.8672 98.7637 25.4688 98.7637 25.0469V24.8125C98.7637 24.332 98.832 23.8926 98.9688 23.4941C99.1055 23.0957 99.3008 22.75 99.5547 22.457C99.8125 22.1641 100.125 21.9395 100.492 21.7832C100.859 21.623 101.273 21.543 101.734 21.543C102.184 21.543 102.582 21.6172 102.93 21.7656C103.277 21.9141 103.568 22.125 103.803 22.3984C104.041 22.6719 104.221 23 104.342 23.3828C104.463 23.7617 104.523 24.1836 104.523 24.6484V25.3516H99.4844V24.2266H102.865V24.0977C102.865 23.8633 102.822 23.6543 102.736 23.4707C102.654 23.2832 102.529 23.1348 102.361 23.0254C102.193 22.916 101.979 22.8613 101.717 22.8613C101.494 22.8613 101.303 22.9102 101.143 23.0078C100.982 23.1055 100.852 23.2422 100.75 23.418C100.652 23.5938 100.578 23.8008 100.527 24.0391C100.48 24.2734 100.457 24.5312 100.457 24.8125V25.0469C100.457 25.3008 100.492 25.5352 100.562 25.75C100.637 25.9648 100.74 26.1504 100.873 26.3066C101.01 26.4629 101.174 26.584 101.365 26.6699C101.561 26.7559 101.781 26.7988 102.027 26.7988C102.332 26.7988 102.615 26.7402 102.877 26.623C103.143 26.502 103.371 26.3203 103.562 26.0781L104.383 26.9688C104.25 27.1602 104.068 27.3438 103.838 27.5195C103.611 27.6953 103.338 27.8398 103.018 27.9531C102.697 28.0625 102.332 28.1172 101.922 28.1172ZM107.137 23.0137V28H105.449V21.6602H107.031L107.137 23.0137ZM106.891 24.6074H106.434C106.434 24.1387 106.494 23.7168 106.615 23.3418C106.736 22.9629 106.906 22.6406 107.125 22.375C107.344 22.1055 107.604 21.9004 107.904 21.7598C108.209 21.6152 108.549 21.543 108.924 21.543C109.221 21.543 109.492 21.5859 109.738 21.6719C109.984 21.7578 110.195 21.8945 110.371 22.082C110.551 22.2695 110.688 22.5176 110.781 22.8262C110.879 23.1348 110.928 23.5117 110.928 23.957V28H109.229V23.9512C109.229 23.6699 109.189 23.4512 109.111 23.2949C109.033 23.1387 108.918 23.0293 108.766 22.9668C108.617 22.9004 108.434 22.8672 108.215 22.8672C107.988 22.8672 107.791 22.9121 107.623 23.002C107.459 23.0918 107.322 23.2168 107.213 23.377C107.107 23.5332 107.027 23.7168 106.973 23.9277C106.918 24.1387 106.891 24.3652 106.891 24.6074ZM115.316 21.6602V22.8555H111.625V21.6602H115.316ZM112.539 20.0957H114.227V26.0898C114.227 26.2734 114.25 26.4141 114.297 26.5117C114.348 26.6094 114.422 26.6777 114.52 26.7168C114.617 26.752 114.74 26.7695 114.889 26.7695C114.994 26.7695 115.088 26.7656 115.17 26.7578C115.256 26.7461 115.328 26.7344 115.387 26.7227L115.393 27.9648C115.248 28.0117 115.092 28.0488 114.924 28.0762C114.756 28.1035 114.57 28.1172 114.367 28.1172C113.996 28.1172 113.672 28.0566 113.395 27.9355C113.121 27.8105 112.91 27.6113 112.762 27.3379C112.613 27.0645 112.539 26.7051 112.539 26.2598V20.0957Z" fill="white"/>
</svg>
